<svg aria-hidden="true" style="position: absolute; width: 0; height: 0; overflow: hidden;" version="1.1" xmlns="http://www.w3.org/2000/svg" xmlns:xlink="http://www.w3.org/1999/xlink">
<defs>
<symbol id="icon-tower" viewBox="0 0 32 32">
<path d="M5.904 3.383c0.004 0.012 0.007 0.023 0.012 0.035 0.003 0.006 0.004 0.013 0.007 0.020l1.543 3.087v3.074h2.667v-1.067c0-0.294 0.238-0.533 0.533-0.533s0.533 0.239 0.533 0.533v1.067h1.6v-1.067c0-0.294 0.238-0.533 0.533-0.533s0.533 0.239 0.533 0.533v1.067h1.6v-1.067c0-0.294 0.238-0.533 0.533-0.533s0.533 0.239 0.533 0.533v1.067h1.6v-1.067c0-0.294 0.238-0.533 0.533-0.533s0.533 0.239 0.533 0.533v1.067h1.6v-1.067c0-0.294 0.238-0.533 0.533-0.533s0.533 0.239 0.533 0.533v1.067h2.667v-3.074l1.544-3.087c0.003-0.006 0.004-0.013 0.007-0.020 0.005-0.012 0.008-0.023 0.012-0.035 0.020-0.053 0.031-0.108 0.033-0.164 0-0.006 0.004-0.012 0.004-0.019v-2.667c0-0.294-0.238-0.533-0.533-0.533h-2.133c-0.295 0-0.533 0.239-0.533 0.533v2.133h-1.067v-2.133c0-0.294-0.238-0.533-0.533-0.533h-2.133c-0.295 0-0.533 0.239-0.533 0.533v2.133h-1.067v-2.133c0-0.294-0.238-0.533-0.533-0.533h-2.133c-0.295 0-0.533 0.239-0.533 0.533v2.133h-1.067v-2.133c0-0.294-0.238-0.533-0.533-0.533h-2.133c-0.295 0-0.533 0.239-0.533 0.533v2.133h-1.067v-2.133c0-0.294-0.238-0.533-0.533-0.533h-2.133c-0.295 0-0.533 0.239-0.533 0.533v2.667c0 0.007 0.004 0.013 0.004 0.020 0.002 0.055 0.013 0.11 0.033 0.164zM8.533 3.733h16.204l-1.067 2.133h-15.341l-1.067-2.133h1.27z"></path>
<path d="M31.467 22.933h-0.533v-1.067c0-0.294-0.238-0.533-0.533-0.533s-0.533 0.239-0.533 0.533v1.067h-1.067v-1.067c0-0.294-0.238-0.533-0.533-0.533s-0.533 0.239-0.533 0.533v1.067h-1.067v-1.067c0-0.294-0.238-0.533-0.533-0.533s-0.533 0.239-0.533 0.533v1.067h-1.067v-12.267h-17.067v12.267h-1.067v-1.067c0-0.294-0.238-0.533-0.533-0.533s-0.533 0.239-0.533 0.533v1.067h-1.067v-1.067c0-0.294-0.238-0.533-0.533-0.533s-0.533 0.239-0.533 0.533v1.067h-1.067v-1.067c0-0.294-0.238-0.533-0.533-0.533s-0.533 0.239-0.533 0.533v1.067h-0.533c-0.295 0-0.533 0.239-0.533 0.533v8c0 0.295 0.238 0.533 0.533 0.533h13.333v-5.867c0-1.176 0.957-2.133 2.133-2.133s2.133 0.957 2.133 2.133v5.867h13.333c0.295 0 0.533-0.238 0.533-0.533v-8c0-0.294-0.238-0.533-0.533-0.533zM10.133 12.266c0.294 0 0.533 0.239 0.533 0.533s-0.239 0.533-0.533 0.533-0.533-0.238-0.533-0.533c0-0.294 0.239-0.533 0.533-0.533zM12.8 23.466c0 0.295-0.238 0.533-0.533 0.533h-2.133c-0.295 0-0.533-0.238-0.533-0.533v-3.2c0-0.882 0.718-1.6 1.6-1.6s1.6 0.718 1.6 1.6v3.2zM12.267 13.333c-0.295 0-0.533-0.238-0.533-0.533s0.238-0.533 0.533-0.533h2.133c0.295 0 0.533 0.239 0.533 0.533s-0.238 0.533-0.533 0.533h-2.133zM14.933 20.8c-0.295 0-0.533-0.238-0.533-0.533v-3.2c0-0.882 0.718-1.6 1.6-1.6s1.6 0.718 1.6 1.6v3.2c0 0.295-0.238 0.533-0.533 0.533h-2.133zM19.733 22.933h-2.133c-0.295 0-0.533-0.238-0.533-0.533s0.238-0.533 0.533-0.533h2.133c0.295 0 0.533 0.239 0.533 0.533s-0.238 0.533-0.533 0.533zM21.867 22.933c-0.294 0-0.533-0.238-0.533-0.533s0.239-0.533 0.533-0.533 0.533 0.239 0.533 0.533c0 0.295-0.239 0.533-0.533 0.533zM22.4 16.533c0 0.295-0.238 0.533-0.533 0.533h-2.133c-0.295 0-0.533-0.238-0.533-0.533v-3.2c0-0.882 0.718-1.6 1.6-1.6s1.6 0.718 1.6 1.6v3.2z"></path>
<path d="M16 25.067c-0.588 0-1.067 0.478-1.067 1.067v5.867h2.133v-5.867c0-0.588-0.478-1.067-1.067-1.067z"></path>
<path d="M11.2 19.733c-0.294 0-0.533 0.239-0.533 0.533v2.667h1.067v-2.667c0-0.294-0.239-0.533-0.533-0.533z"></path>
<path d="M16 16.533c-0.294 0-0.533 0.239-0.533 0.533v2.667h1.067v-2.667c0-0.294-0.239-0.533-0.533-0.533z"></path>
<path d="M20.8 12.8c-0.294 0-0.533 0.239-0.533 0.533v2.667h1.067v-2.667c0-0.294-0.239-0.533-0.533-0.533z"></path>
</symbol>
<symbol id="icon-cancel" viewBox="0 0 32 32">
<path   stroke-linejoin="round" stroke-linecap="round" stroke-miterlimit="4" stroke-width="2.6667" d="M1.778 30.222l14.222-14.222M16 16l14.222-14.222M16 16l-14.222-14.222M16 16l14.222 14.222"></path>
</symbol>
<symbol id="icon-download" viewBox="0 0 32 32">
<path d="M16.738 22.008c-0.189 0.207-0.457 0.325-0.738 0.325s-0.549-0.118-0.738-0.325l-5.333-5.833c-0.373-0.408-0.344-1.040 0.063-1.413s1.040-0.344 1.413 0.063l3.595 3.932v-14.758c0-0.552 0.448-1 1-1s1 0.448 1 1v14.758l3.595-3.932c0.373-0.408 1.005-0.436 1.413-0.063s0.436 1.005 0.063 1.413l-5.333 5.833z"></path>
<path d="M5 20c0-0.552-0.448-1-1-1s-1 0.448-1 1v0.073c-0 1.823-0 3.293 0.155 4.449 0.161 1.2 0.507 2.211 1.309 3.013s1.813 1.148 3.013 1.309c1.156 0.155 2.626 0.155 4.449 0.155h8.146c1.823 0 3.293 0 4.449-0.155 1.2-0.161 2.211-0.507 3.013-1.309s1.148-1.813 1.309-3.013c0.155-1.156 0.155-2.626 0.155-4.449v-0.073c0-0.552-0.448-1-1-1s-1 0.448-1 1c0 1.914-0.002 3.249-0.137 4.256-0.132 0.978-0.372 1.496-0.741 1.865s-0.887 0.61-1.865 0.741c-1.007 0.135-2.342 0.137-4.256 0.137h-8c-1.914 0-3.249-0.002-4.256-0.137-0.978-0.132-1.496-0.372-1.865-0.741s-0.61-0.887-0.741-1.865c-0.135-1.007-0.138-2.342-0.138-4.256z"></path>
</symbol>
<symbol id="icon-details" viewBox="0 0 32 32">
<path d="M4.54 11.908h16.172v1.619h-16.172v-1.619z"></path>
<path d="M4.54 7.939h16.172v1.62h-16.172v-1.62z"></path>
<path d="M31.657 8.114l-2.675-2.314c-0.367-0.319-0.887-0.325-1.155-0.019l-1.675 1.932 4.017 3.478 1.675-1.933c0.268-0.305 0.181-0.828-0.187-1.144z"></path>
<path d="M25.713 8.22l-0.542 0.628v-6.307h-25.17v26.92h25.17v-12.503l4.553-5.255-4.011-3.482zM23.225 27.548h-21.277v-22.38h21.277v5.924l-4.692 5.417h-13.993v1.619h12.591l-0.176 0.203 4.007 3.48 2.262-2.61 0.001 8.348z"></path>
<path d="M15.253 23.999l0.203 0.18 5.055-1.843-4.012-3.481z"></path>
<path d="M10.417 23.352c0 1.419-1.15 2.569-2.569 2.569s-2.569-1.15-2.569-2.569c0-1.419 1.15-2.569 2.569-2.569s2.569 1.15 2.569 2.569z"></path>
</symbol>
<symbol id="icon-upload-file" viewBox="0 0 32 32">
<path d="M29.055 20.103l-3.479-4.986v-8.779c0-0.435-0.17-0.843-0.477-1.15l-4.712-4.712c-0.307-0.307-0.716-0.476-1.15-0.476h-14.18c-1.528 0-2.77 1.243-2.77 2.77v24.976c0 1.527 1.242 2.77 2.77 2.77h12.972c0.124 0.166 0.255 0.326 0.406 0.47 0.654 0.625 1.535 1.015 2.509 1.015 1.756 0-0.081 0 2.24 0 0.974 0 1.857-0.39 2.511-1.015 0.762-0.727 1.131-1.683 1.131-2.626v-2.611c1.057-0.223 1.963-0.904 2.471-1.878 0.63-1.207 0.537-2.65-0.243-3.767zM11.087 27.041h-5.389v-23.567h11.451v3.047c0 1.086 0.883 1.969 1.969 1.969h3.048v4.326h-0.017v0.003c-1.153-0.027-2.316 0.475-3.059 1.529l-4.014 5.754c-0.78 1.117-0.873 2.561-0.243 3.767 0.508 0.974 1.414 1.655 2.471 1.878v1.293h-6.217zM26.744 22.537c-0.132 0.252-0.39 0.409-0.674 0.409h-2.124v5.413c0 0.42-0.341 0.76-0.76 0.76h-2.242c-0.419 0-0.76-0.341-0.76-0.76v-5.413h-2.124c-0.283 0-0.541-0.157-0.674-0.409-0.131-0.252-0.112-0.553 0.051-0.787l4.004-5.74c0.143-0.204 0.376-0.325 0.624-0.325h0.001c0.248 0 0.481 0.121 0.624 0.325l4.004 5.74c0.163 0.233 0.182 0.535 0.051 0.787z"></path>
</symbol>
</defs>
</svg>
